<svg width="64" height="64" viewBox="0 0 64 64" fill="none" xmlns="http://www.w3.org/2000/svg">
  <!-- Outer geometric frame -->
  <rect x="8" y="8" width="48" height="48" rx="12" stroke="url(#grad1)" stroke-width="2" fill="none" />

  <!-- Inner liquid wave shape -->
  <path
    d="M 20 32 Q 26 24, 32 32 T 44 32"
    stroke="url(#grad2)"
    stroke-width="3"
    fill="none"
    stroke-linecap="round"
  />
  <path
    d="M 20 38 Q 26 30, 32 38 T 44 38"
    stroke="url(#grad2)"
    stroke-width="2.5"
    fill="none"
    stroke-linecap="round"
    opacity="0.6"
  />

  <!-- Stylized "S" for Stonebrook -->
  <path
    d="M 32 20 C 38 20, 40 23, 40 26 C 40 29, 38 31, 32 31 C 26 31, 24 33, 24 36 C 24 39, 26 42, 32 42"
    stroke="url(#grad3)"
    stroke-width="3"
    fill="none"
    stroke-linecap="round"
    stroke-linejoin="round"
  />

  <!-- Accent dots -->
  <circle cx="15" cy="15" r="2" fill="#60a5fa" opacity="0.8" />
  <circle cx="49" cy="49" r="2" fill="#3b82f6" opacity="0.8" />

  <!-- Gradients -->
  <defs>
    <linearGradient id="grad1" x1="0%" y1="0%" x2="100%" y2="100%">
      <stop offset="0%" style="stop-color:#60a5fa;stop-opacity:1" />
      <stop offset="100%" style="stop-color:#3b82f6;stop-opacity:1" />
    </linearGradient>

    <linearGradient id="grad2" x1="0%" y1="0%" x2="100%" y2="0%">
      <stop offset="0%" style="stop-color:#60a5fa;stop-opacity:0.6" />
      <stop offset="50%" style="stop-color:#3b82f6;stop-opacity:0.8" />
      <stop offset="100%" style="stop-color:#60a5fa;stop-opacity:0.6" />
    </linearGradient>

    <linearGradient id="grad3" x1="0%" y1="0%" x2="0%" y2="100%">
      <stop offset="0%" style="stop-color:#0A1628;stop-opacity:1" />
      <stop offset="100%" style="stop-color:#3b82f6;stop-opacity:1" />
    </linearGradient>
  </defs>
</svg>


